<svg width="208" height="25" viewBox="0 0 208 25" fill="none" xmlns="http://www.w3.org/2000/svg">
<path d="M3 12.5C8.61111 -0.166666 14.2222 -0.166666 19.8333 12.5C25.4444 25.1667 31.0556 25.1667 36.6667 12.5C42.2778 -0.166666 47.8889 -0.166666 53.5 12.5C59.1111 25.1667 64.7222 25.1667 70.3333 12.5C75.9444 -0.166666 81.5556 -0.166666 87.1667 12.5C92.7778 25.1667 98.3889 25.1667 104 12.5C109.611 -0.166666 115.222 -0.166666 120.833 12.5C126.444 25.1667 132.056 25.1667 137.667 12.5C143.278 -0.166666 148.889 -0.166666 154.5 12.5C160.111 25.1667 165.722 25.1667 171.333 12.5C176.944 -0.166666 182.556 -0.166666 188.167 12.5C193.778 25.1667 199.389 25.1667 205 12.5" stroke="#F8DB45" stroke-width="6"/>
</svg>
