<?xml version="1.0" encoding="UTF-8"?>
<svg id="Layer_1" data-name="Layer 1" xmlns="http://www.w3.org/2000/svg" viewBox="0 0 740.51 64.7">
  <defs>
    <style>
      .cls-1 {
        fill: #3F90F6;
        stroke-width: 0px;
      }
    </style>
  </defs>
  <path class="cls-1" d="m739.6,50.44c-.54-.82-1.12-1.6-1.73-2.37.14-.78-.09-1.52-.69-2.22.63-.07,1.26-.12,1.89-.19.15-1.37-.36-2.53-1.51-3.5-.52-.61-1.07-1.2-1.61-1.81.33-.04.66-.06.99-.1,0-.94-.26-1.77-.77-2.5.89-.1,1.78-.18,2.67-.29.62-.18.96-.59,1.01-1.24-.13-.94-.61-1.69-1.44-2.25-.7-.67-1.44-1.29-2.2-1.89.25-.39.38-.84.27-1.26-.24-.9-2.26-2.48-3.2-2.39-1.21.13-2.41.24-3.62.36-2.87-2.65-5.8-5.22-8.83-7.69-3.49-2.96-7.08-5.79-10.77-8.48-.43-.44-.88-.76-1.36-.99-.69-.77-1.47-1.27-2.33-1.51-.59-.25-1.22-.39-1.9-.39-12.33.94-24.67,1.44-37.04,1.48-12.42.05-24.82-.22-37.23-.79-25.01-1.1-49.96-3.24-74.91-5.24-21.94-1.75-43.88-3.42-65.87-4.4-11.47-.52-22.97-.92-34.46-.74-6.94.11-13.87.64-20.8.89-9.79.36-19.59.8-29.38,1.27-22.86,1.08-45.72,2.26-68.58,3.44-60.63,3.13-121.26,6.34-181.92,8.95-27.11,1.16-54.23,2.25-81.35,3.08-13.49.41-26.98.76-40.47,1.01-10.83.19-21.65.14-32.48.24,0,0,0,0,0,.01,0,0,0,0,0,0-.01,1.65.66,3.06,2,4.23,2.38,2.91,4.83,5.74,7.32,8.55.21.73.63,1.4,1.27,2.02,1.94,2.63,3.96,5.19,6.01,7.73.56,1.04,1.24,2.02,2.08,2.9,2.24,2.93,4.58,5.79,7.01,8.58.1.14.21.26.31.39-.8.77.05,2.25.66,3.25.98,1.49,2.05,2.9,3.23,4.24.43.7,1,1.19,1.7,1.49.22.26.42.53.65.78.56.88,1.32,1.42,2.3,1.62,4.83-1.67,9.8-2.21,14.91-1.61,6.01-.06,12.02-.19,18.03-.39,13.59-.4,27.18-.9,40.77-1.45,27.29-1.1,54.57-2.38,81.85-3.72,60.83-2.98,121.64-6.32,182.45-9.55,22.93-1.22,45.85-2.44,68.79-3.52,9.85-.46,19.69-.91,29.54-1.25,6.73-.23,13.48-.5,20.21-.38,1.99,0,3.98.1,5.96.31,6.16.27,12.33.54,18.49.81,24.6,1.29,49.11,4.14,73.61,6.62,24.72,2.5,49.47,4.91,74.32,5.86,12.57.52,25.14.61,37.71.28,12.74-.33,25.44-1.23,38.1-2.7,2.2-.2.96-2.54.34-3.55Z"/>
</svg>